<svg width="657" height="619" viewBox="0 0 657 619" fill="none" xmlns="http://www.w3.org/2000/svg">
<path d="M598.5 306.833C585.667 306.833 574 310.333 564.667 317.333C539 302.167 512.167 289.333 486.5 275.333C474.833 269.5 464.333 264.833 452.667 260.167C472.5 239.167 491.167 219.333 509.833 198.333C540.167 163.333 570.5 127.167 597.333 87.5C603.167 79.3333 603.167 68.8333 597.333 60.6667C590.333 50.1667 575.167 46.6667 564.667 54.8333C525 81.6667 488.833 112 453.833 142.333C434 159.833 413 178.5 394.333 197.167C392 190.167 388.5 182 386.167 175C379.167 156.333 371 137.667 362.833 119C375.667 106.167 383.833 88.6667 383.833 70C383.833 31.5 352.333 0 313.833 0C275.333 0 243.833 31.5 243.833 70C243.833 105 269.5 134.167 303.333 138.833C308 158.667 312.667 178.5 317.333 197.167C318.5 199.5 318.5 201.833 319.667 204.167C312.667 201.833 305.667 198.333 298.667 196C277.667 187.833 255.5 179.667 234.5 171.5C218.167 165.667 203 159.833 186.667 155.167V151.667C186.667 100.333 144.667 58.3333 93.3333 58.3333C42 58.3333 0 100.333 0 151.667C0 203 42 245 93.3333 245C120.167 245 143.5 233.333 161 215.833C176.167 224 191.333 231 206.5 239.167C227.5 249.667 247.333 259 268.333 269.5C281.167 275.333 294 281.167 306.833 287C290.5 304.5 273 323.167 256.667 341.833C226.333 376.833 196 413 169.167 452.667C164.5 460.833 163.333 471.333 169.167 479.5C176.167 490 191.333 493.5 201.833 486.5C241.5 459.667 277.667 430.5 312.667 399C330.167 383.833 347.667 367.5 365.167 351.167C367.5 358.167 369.833 366.333 373.333 373.333C380.333 393.167 387.333 411.833 394.333 430.5C400.167 445.667 406 459.667 411.833 474.833C394.333 490 382.667 512.167 382.667 536.667C382.667 582.167 418.833 618.333 464.333 618.333C509.833 618.333 546 582.167 546 536.667C546 493.5 513.333 458.5 471.333 455C467.833 439.833 464.333 424.667 459.667 409.5C453.833 389.667 449.167 369.833 443.333 350C442.167 347.667 442.167 345.333 441 343C446.833 345.333 451.5 347.667 457.333 348.833C485.333 358.167 513.333 367.5 541.333 376.833C546 404.833 569.333 425.833 598.5 425.833C631.167 425.833 656.833 400.167 656.833 367.5C656.833 334.833 631.167 306.833 598.5 306.833Z" fill="#0891B2"/>
</svg>
