<svg width="746" height="821" viewBox="0 0 746 821" fill="none" xmlns="http://www.w3.org/2000/svg">
<path d="M373 0.00704916L195.313 307.878L373 410.501L550.652 307.878L558.373 89.2879C477.235 42.4197 393.516 0 373.004 0L373 0.00704916Z" fill="#559CBB"/>
<path d="M558.37 89.29L373 410.503L550.652 513.127L728.338 205.256C718.081 187.481 639.516 136.162 558.377 89.2971L558.37 89.29Z" fill="#559CBB"/>
<path d="M728.331 205.256L373 410.503L550.652 513.127L743.712 410.503C743.712 316.766 738.589 223.028 728.331 205.256Z" fill="#424642"/>
<path d="M373 410.503V615.751H728.331C738.589 597.975 743.703 504.241 743.703 410.503H373Z" fill="#424642"/>
<path d="M373 410.503V615.751L558.37 731.71C639.509 684.842 718.075 633.522 728.331 615.751L373 410.503Z" fill="#536162"/>
<path d="M373 410.503L195.313 513.127L373 820.998C393.515 820.998 477.231 778.58 558.37 731.71L373 410.503Z" fill="#536162"/>
<path d="M195.314 307.88L17.6621 615.751C38.177 651.301 331.969 820.998 372.993 820.998V410.503L195.314 307.88Z" fill="#536162"/>
<path d="M17.6691 205.256C-2.84576 240.806 -2.84576 580.2 17.6691 615.751L373 410.503V205.256H17.6691Z" fill="#424642"/>
<path d="M373 0.00708008C331.97 0.00707867 38.1813 169.704 17.6692 205.254L373 410.501V0.00708008Z" fill="#559CBB"/>
<path d="M373.045 205.255C352.53 205.255 205.657 290.105 195.401 307.877L373.045 615.75L550.726 307.877C540.468 290.102 393.563 205.255 373.045 205.255V205.255Z" fill="white"/>
<path d="M195.404 307.877L373.05 615.747C393.565 615.747 540.474 530.899 550.728 513.126C560.985 495.351 560.985 325.651 550.728 307.877L373.05 410.498L195.404 307.877Z" fill="#DFDFDF"/>
<path d="M195.363 307.88C185.106 325.655 185.105 495.355 195.363 513.127C205.621 530.901 352.495 615.751 373.014 615.751V410.503L195.363 307.88Z" fill="#D6D2D2"/>
</svg>
