<svg width="1034" height="1034" viewBox="0 0 1034 1034" fill="none" xmlns="http://www.w3.org/2000/svg">
<path fill-rule="evenodd" clip-rule="evenodd" d="M0 0H1034V1034H0V0ZM790.45 866.837C742.498 866.837 715.399 841.848 694.589 807.812L615.618 853.696C644.139 910.049 702.431 953.046 792.69 953.046C884.975 953.046 953.693 905.138 953.693 817.636C953.693 736.51 907.076 700.449 824.529 664.991L800.23 654.608C758.525 636.513 740.473 624.751 740.473 595.584C740.473 572.017 758.568 553.965 787.003 553.965C814.878 553.965 832.844 565.727 849.517 595.584L925.172 547.029C893.161 490.719 848.785 469.221 787.003 469.221C700.233 469.221 644.699 524.712 644.699 597.609C644.699 676.667 691.229 714.106 761.369 743.963L785.668 754.389C830 773.777 856.41 785.581 856.41 818.885C856.41 846.717 830.69 866.837 790.45 866.837ZM413.902 866.19C380.512 866.19 366.596 843.356 351.345 816.214L272.244 864.122C295.164 912.634 340.229 952.874 417.994 952.874C504.118 952.874 563.099 907.076 563.099 806.477V474.735H465.946V805.184C465.946 853.739 445.783 866.19 413.858 866.19H413.902Z" fill="black"/>
</svg>
