<svg width="1171" height="1815" viewBox="0 0 1171 1815" fill="none" xmlns="http://www.w3.org/2000/svg">
<path fill-rule="evenodd" clip-rule="evenodd" d="M588.598 523.439C491.531 565.768 297.397 696.266 297.397 879.625V1291.56V1808.81C394.464 1782.99 588.598 1694.21 588.598 1545.54V523.439ZM1167.9 922.986C1167.9 685.116 973.77 557.509 876.701 523.439V1220.32C973.77 1220.32 1167.9 1160.86 1167.9 922.986Z" fill="#505050"/>
<path d="M297.397 1291.56V879.625C297.397 659.099 103.263 597.773 6.1958 594.676V929.181C6.1958 1132.36 200.33 1255.43 297.397 1291.56Z" fill="white"/>
<path d="M876.701 6.19455C781.701 17.5512 591.076 82.3874 588.597 250.879C586.119 419.37 587.564 1014.87 588.597 1291.56C684.632 1248.2 876.701 1115.64 876.701 932.278V6.19455Z" fill="white"/>
</svg>
