<svg width="100" height="100" viewBox="0 0 100 100" fill="none" xmlns="http://www.w3.org/2000/svg">
<path d="M12.5 12.5H87.5V87.5H12.5V12.5ZM81.3542 69.6125C80.8083 66.1917 78.5792 63.3167 71.9708 60.6333C69.6708 59.5542 67.1167 58.8083 66.35 57.075C66.0667 56.0417 66.025 55.4833 66.2083 54.8708C66.6792 52.8542 69.0708 52.25 70.9458 52.8083C72.1667 53.1833 73.2917 54.1208 73.9958 55.625C77.225 53.5125 77.225 53.5125 79.4792 52.1083C78.6333 50.8 78.2125 50.2292 77.65 49.6667C75.6792 47.4667 73.0542 46.3417 68.7917 46.4375L66.5917 46.7167C64.4792 47.2333 62.4625 48.3625 61.2458 49.8583C57.6833 53.8917 58.7125 60.9208 63.025 63.8333C67.2875 67.0208 73.5292 67.7208 74.325 70.7208C75.075 74.3792 71.6083 75.55 68.1792 75.1292C65.65 74.5625 64.2417 73.3 62.6958 70.9542L56.9792 74.2375C57.6333 75.7333 58.3833 76.3917 59.5083 77.7042C64.9458 83.1875 78.5417 82.9083 80.9792 74.5625C81.0667 74.2833 81.7292 72.3625 81.2125 69.4083L81.3542 69.6125ZM53.2833 46.9708H46.2583C46.2583 53.025 46.2292 59.0458 46.2292 65.1125C46.2292 68.9625 46.425 72.4958 45.7958 73.5833C44.7667 75.7375 42.1042 75.4625 40.9 75.0792C39.6625 74.4708 39.0333 73.625 38.3042 72.4083C38.1083 72.0833 37.9625 71.8 37.9083 71.8L32.2083 75.3167C33.1625 77.2875 34.5542 78.9792 36.35 80.0542C39.0208 81.65 42.6083 82.1667 46.3667 81.325C48.8167 80.6167 50.9292 79.1625 52.025 76.9125C53.625 74.0083 53.2833 70.4417 53.2708 66.4583C53.3042 60.0375 53.2708 53.6125 53.2708 47.1458L53.2833 46.9708Z" fill="#333333"/>
</svg>
