<svg width="30" height="31" viewBox="0 0 30 31" fill="none" xmlns="http://www.w3.org/2000/svg">
<path fill-rule="evenodd" clip-rule="evenodd" d="M15 0C6.7125 0 0 6.93625 0 15.5C0 22.3587 4.29375 28.1519 10.2563 30.2056C11.0063 30.3412 11.2875 29.8762 11.2875 29.4694C11.2875 29.1012 11.2688 27.8806 11.2688 26.5825C7.5 27.2994 6.525 25.6331 6.225 24.7612C6.05625 24.3156 5.325 22.94 4.6875 22.5719C4.1625 22.2812 3.4125 21.5644 4.66875 21.545C5.85 21.5256 6.69375 22.6687 6.975 23.1337C8.325 25.4781 10.4812 24.8194 11.3438 24.4125C11.475 23.405 11.8688 22.7269 12.3 22.3394C8.9625 21.9519 5.475 20.615 5.475 14.6862C5.475 13.0006 6.05625 11.6056 7.0125 10.5206C6.8625 10.1331 6.3375 8.54437 7.1625 6.41312C7.1625 6.41312 8.41875 6.00625 11.2875 8.00187C12.4875 7.65312 13.7625 7.47875 15.0375 7.47875C16.3125 7.47875 17.5875 7.65312 18.7875 8.00187C21.6562 5.98687 22.9125 6.41312 22.9125 6.41312C23.7375 8.54437 23.2125 10.1331 23.0625 10.5206C24.0188 11.6056 24.6 12.9812 24.6 14.6862C24.6 20.6344 21.0938 21.9519 17.7563 22.3394C18.3 22.8237 18.7688 23.7537 18.7688 25.2069C18.7688 27.28 18.75 28.9462 18.75 29.4694C18.75 29.8762 19.0312 30.3606 19.7812 30.2056C22.759 29.1668 25.3465 27.1892 27.1796 24.5512C29.0127 21.9132 29.9991 18.7476 30 15.5C30 6.93625 23.2875 0 15 0Z" fill="white"/>
</svg>
