<svg width="100" height="100" viewBox="0 0 100 100" fill="none" xmlns="http://www.w3.org/2000/svg">
<path d="M49.9997 8.3335C73.008 8.3335 91.6663 26.9918 91.6663 50.0002C91.6663 73.0085 73.008 91.6668 49.9997 91.6668C26.9913 91.6668 8.33301 73.0085 8.33301 50.0002C8.33301 26.9918 26.9913 8.3335 49.9997 8.3335ZM41.7205 63.8835C42.3288 66.121 42.2622 68.2127 41.633 70.1043L41.408 70.7293C40.8817 71.9892 40.1385 73.147 39.2122 74.1502C36.7872 76.7877 33.4038 77.7835 31.9538 76.946C30.3913 76.0335 31.1705 72.3127 33.983 69.3418C37.008 66.1543 41.3413 64.1002 41.3413 64.1002V64.0918L41.7205 63.8835ZM76.1288 26.171C74.2455 18.7668 61.9747 16.3293 50.358 20.4585C43.458 22.9127 35.9705 26.771 30.5955 31.8043C24.1955 37.7793 23.1788 42.9877 23.5955 45.1627C25.0747 52.8418 35.5997 57.8627 39.9288 61.5877V61.6085C38.6497 62.2293 29.3122 66.9168 27.1288 71.7668C24.783 76.871 27.4955 80.521 29.2663 80.9835C34.7372 82.496 40.358 79.7335 43.383 75.2585C46.2955 70.8793 46.0413 65.2585 44.7872 62.496C46.508 62.0293 48.533 61.821 51.1372 62.1377C58.433 62.9668 59.8913 67.5543 59.5705 69.4293C59.2622 71.3002 57.7538 72.3918 57.233 72.7043C56.708 73.021 56.5538 73.1252 56.6038 73.3335C56.658 73.6418 56.9205 73.6418 57.333 73.596C57.908 73.4918 61.1413 72.0335 61.2955 68.4835C61.4497 64.0085 57.1788 59.0127 49.5747 59.1085C46.4497 59.1668 44.4663 59.4252 43.0622 60.0002C42.9674 59.8533 42.8424 59.7283 42.6955 59.6335C38.008 54.5793 29.308 51.0377 29.6747 44.321C29.7788 41.871 30.6622 35.4168 46.3413 27.6043C59.208 21.196 69.4705 22.971 71.2455 26.8752C73.7872 32.4418 65.7705 42.8127 52.3872 44.321C47.283 44.896 44.6288 42.9168 43.9455 42.1835C43.2205 41.4002 43.1205 41.3502 42.858 41.5127C42.4372 41.721 42.6997 42.396 42.858 42.8168C43.2747 43.8543 44.8872 45.6835 47.7038 46.6168C50.1497 47.4002 56.1372 47.8627 63.3288 45.0543C71.3997 41.9335 77.6997 33.2293 75.8788 25.9377L76.1288 26.171Z" fill="#333333"/>
</svg>
