<svg width="100" height="100" viewBox="0 0 100 100" fill="none" xmlns="http://www.w3.org/2000/svg">
<path d="M63.8834 36.1165C67.4928 36.0082 70.9181 34.4982 73.4329 31.9068C75.9477 29.3154 77.3542 25.8463 77.3542 22.2353C77.3542 18.6242 75.9477 15.1551 73.4329 12.5637C70.9181 9.9723 67.4928 8.46233 63.8834 8.354H36.1167C32.5073 8.46233 29.082 9.9723 26.5671 12.5637C24.0523 15.1551 22.6458 18.6242 22.6458 22.2353C22.6458 25.8463 24.0523 29.3154 26.5671 31.9068C29.082 34.4982 32.5073 36.0082 36.1167 36.1165C32.4757 36.1796 29.0052 37.6702 26.4526 40.2674C23.9 42.8645 22.4697 46.3604 22.4697 50.0019C22.4697 53.6435 23.9 57.1393 26.4526 59.7364C29.0052 62.3336 32.4757 63.8243 36.1167 63.8873C32.4935 63.9761 29.0485 65.4778 26.5174 68.0717C23.9862 70.6657 22.5693 74.1464 22.5693 77.7707C22.5693 81.395 23.9862 84.8756 26.5174 87.4696C29.0485 90.0636 32.4935 91.5652 36.1167 91.654C39.7988 91.6518 43.3294 90.1878 45.9327 87.5838C48.536 84.9797 49.9989 81.4486 50 77.7665V36.1165H63.8834Z" fill="#333333"/>
<path d="M63.8833 63.8834C71.5509 63.8834 77.7667 57.6676 77.7667 50C77.7667 42.3325 71.5509 36.1167 63.8833 36.1167C56.2158 36.1167 50 42.3325 50 50C50 57.6676 56.2158 63.8834 63.8833 63.8834Z" fill="#333333"/>
</svg>
