<svg width="100" height="100" viewBox="0 0 100 100" fill="none" xmlns="http://www.w3.org/2000/svg">
<path d="M75.0081 12.4873H24.9956C21.6805 12.4972 18.5041 13.8188 16.1604 16.1633C13.8166 18.5078 12.4961 21.6847 12.4873 24.9998V75.0081C12.4994 78.3215 13.8212 81.4956 16.1645 83.838C18.5078 86.1805 21.6823 87.5013 24.9956 87.5123H75.0081C78.3207 87.5002 81.4942 86.1789 83.8366 83.8366C86.1789 81.4942 87.5002 78.3207 87.5123 75.0081V24.9998C87.5024 21.6858 86.1821 18.5102 83.8395 16.166C81.4969 13.8218 78.3222 12.4994 75.0081 12.4873ZM68.1748 65.1831C67.5415 66.6831 66.554 68.0165 65.2873 69.0456C63.7894 70.2089 62.0842 71.0771 60.2623 71.604C58.2206 72.2331 55.7873 72.5581 52.9706 72.5581H32.8665V28.7873H54.129C58.0581 28.7873 61.2123 29.6748 63.5748 31.479C65.9456 33.2956 67.1331 35.9873 67.1331 39.6373C67.1331 41.8373 66.5915 43.7331 65.5123 45.2915C64.4331 46.8456 62.8873 48.0581 60.8831 48.9081V49.0498C63.5581 49.6123 65.6206 50.8748 66.9831 52.8498C68.3456 54.8206 69.0373 57.304 69.0373 60.304C69.0373 61.9915 68.7123 63.5873 68.0998 65.0831L68.1831 65.1706V65.1831H68.1748ZM59.4915 54.3956C58.204 53.2206 56.4123 52.6498 54.0873 52.6498H40.5706V66.2998H54.1248C56.4331 66.2998 58.254 65.6998 59.5331 64.4873C60.8165 63.2831 61.4665 61.5665 61.4665 59.3665C61.4456 57.2081 60.8165 55.5373 59.5331 54.3956H59.4748H59.4915ZM57.6123 45.5665C58.8581 44.5206 59.4623 43.0123 59.4623 41.0498C59.4623 38.8581 58.9165 37.2915 57.8081 36.3998C56.7081 35.5081 55.1165 35.0415 53.0331 35.0415H40.529V47.1165H53.0331C54.8498 47.1206 56.4081 46.5873 57.6123 45.5665Z" fill="#333333"/>
</svg>
