<svg width="100" height="100" viewBox="0 0 100 100" fill="none" xmlns="http://www.w3.org/2000/svg">
<path d="M77.083 39.6248C73.9582 38.5486 71.2 36.6136 69.1247 34.0415C66.8374 31.1758 63.9249 28.8713 60.6101 27.3041C57.2953 25.737 53.6659 24.9488 49.9997 24.9998C45.0679 24.6506 40.1854 26.1717 36.3247 29.2603C32.464 32.3489 29.9082 36.7783 29.1663 41.6665C30.6275 39.2217 32.8266 37.3035 35.4471 36.1878C38.0677 35.0722 40.9747 34.8168 43.7497 35.4582C46.8692 36.5657 49.6229 38.5121 51.708 41.0832C54.0078 43.926 56.9258 46.2067 60.24 47.7519C63.5541 49.297 67.177 50.0659 70.833 49.9998C75.7648 50.3491 80.6472 48.828 84.508 45.7394C88.3687 42.6508 90.9245 38.2214 91.6663 33.3332C90.2317 35.8072 88.0396 37.7544 85.4137 38.8874C82.7878 40.0203 79.8671 40.2788 77.083 39.6248ZM22.9163 60.3748C26.0411 61.4511 28.7993 63.3861 30.8747 65.9582C33.162 68.8239 36.0744 71.1284 39.3893 72.6956C42.7041 74.2627 46.3334 75.0509 49.9997 74.9998C54.9315 75.3491 59.8139 73.828 63.6746 70.7394C67.5354 67.6508 70.0912 63.2214 70.833 58.3332C69.3719 60.778 67.1728 62.6962 64.5522 63.8119C61.9316 64.9275 59.0247 65.1829 56.2497 64.5415C53.1301 63.434 50.3764 61.4876 48.2913 58.9165C45.9853 56.0808 43.0661 53.805 39.7535 52.2605C36.4408 50.716 32.8209 49.9431 29.1663 49.9998C24.2345 49.6506 19.3521 51.1717 15.4914 54.2603C11.6306 57.3489 9.07485 61.7783 8.33301 66.6665C9.76762 64.1925 11.9597 62.2453 14.5856 61.1123C17.2116 59.9794 20.1322 59.7209 22.9163 60.3748Z" fill="#333333"/>
</svg>
