<svg width="31" height="31" viewBox="0 0 31 31" fill="none" xmlns="http://www.w3.org/2000/svg">
<path d="M14.6731 12.1336V8.28281L8.19632 12.5937L11.0887 14.5243L14.6731 12.1336ZM23.4645 16.8978V14.1368L21.3955 15.5173L23.4645 16.8978ZM15.5 0C6.9404 0 0 6.9404 0 15.5C0 24.0596 6.9404 31 15.5 31C24.0596 31 31 24.0596 31 15.5C31 6.9404 24.0596 0 15.5 0ZM25.1183 18.4408C25.1183 18.4789 25.1148 18.5135 25.1114 18.5481C25.1114 18.5619 25.1079 18.5723 25.1045 18.5827C25.0996 18.6206 25.0903 18.6577 25.0768 18.6934C25.0699 18.7142 25.0629 18.7349 25.056 18.7522C25.0491 18.7661 25.0422 18.7799 25.0387 18.7937C25.0283 18.811 25.0214 18.8318 25.011 18.8491C25.0041 18.8629 24.9972 18.8733 24.9868 18.8872C24.9765 18.9045 24.9626 18.9218 24.9522 18.9391C24.9419 18.9529 24.9349 18.9633 24.9246 18.9737C24.9107 18.9875 24.8969 19.0048 24.883 19.0186C24.8727 19.029 24.8623 19.0394 24.8484 19.0498C24.8346 19.0636 24.8173 19.0775 24.8 19.0878C24.7862 19.0982 24.7758 19.1086 24.7619 19.1155C24.7585 19.119 24.7516 19.1224 24.7481 19.1259L15.9567 24.9799C15.8183 25.0733 15.6592 25.1183 15.5 25.1183C15.3374 25.1183 15.1782 25.0699 15.0398 24.9799L6.24844 19.1294C6.24498 19.1259 6.23806 19.1224 6.2346 19.119L6.19654 19.0913C6.17924 19.0775 6.1654 19.0671 6.15156 19.0532C6.14118 19.0429 6.1308 19.0325 6.11696 19.0221C6.10312 19.0083 6.08929 18.9944 6.07545 18.9771C6.06518 18.9665 6.05592 18.9549 6.04777 18.9425C6.03393 18.9252 6.02355 18.9079 6.01317 18.8906C6.00625 18.8768 5.99587 18.8664 5.98895 18.8526C5.97857 18.8353 5.96819 18.8145 5.96127 18.7972C5.95435 18.7834 5.94743 18.7695 5.94397 18.7557C5.93705 18.7349 5.93013 18.7142 5.92321 18.6969C5.91975 18.683 5.91283 18.6692 5.90937 18.6554C5.90246 18.6311 5.899 18.6104 5.89554 18.5862C5.89208 18.5758 5.89208 18.5619 5.88862 18.5516C5.88516 18.517 5.8817 18.4789 5.8817 18.4443V12.5903C5.8817 12.5557 5.88516 12.5176 5.88862 12.483C5.89208 12.4727 5.89208 12.4588 5.89554 12.4484C5.90042 12.4106 5.90971 12.3734 5.92321 12.3377C5.93013 12.317 5.93705 12.2962 5.94397 12.2789C5.95089 12.2651 5.95781 12.2512 5.96127 12.2374C5.96819 12.2201 5.97857 12.1993 5.98895 12.182C5.99587 12.1682 6.00279 12.1578 6.01317 12.144C6.03393 12.1128 6.05469 12.0852 6.07545 12.0575C6.08929 12.0436 6.10312 12.0263 6.11696 12.0125C6.12734 12.0021 6.13772 11.9917 6.15156 11.9814C6.1654 11.9675 6.1827 11.9537 6.19654 11.9433C6.21038 11.9329 6.22076 11.9225 6.2346 11.9156C6.23806 11.9122 6.24498 11.9087 6.24844 11.9052L15.0398 6.05469C15.3166 5.87132 15.6799 5.87132 15.9567 6.05469L24.7481 11.9052C24.7516 11.9087 24.7585 11.9122 24.7619 11.9156L24.8 11.9433L24.8484 11.9814C24.8588 11.9917 24.8692 12.0021 24.883 12.0125C24.8969 12.0263 24.9107 12.0402 24.9246 12.0575C24.9488 12.0852 24.9695 12.1128 24.9868 12.144C24.9937 12.1578 25.0041 12.1682 25.011 12.182C25.0214 12.1993 25.0318 12.2166 25.0387 12.2374C25.0456 12.2512 25.0526 12.2651 25.056 12.2789C25.0629 12.2997 25.0699 12.3204 25.0768 12.3377C25.0802 12.3516 25.0872 12.3654 25.0906 12.3792C25.0975 12.4035 25.101 12.4242 25.1045 12.4484C25.1079 12.4588 25.1079 12.4727 25.1114 12.483C25.1148 12.5176 25.1183 12.5557 25.1183 12.5903V18.4408V18.4408ZM16.3269 18.901V22.7518L22.8037 18.4408L19.9113 16.5103L16.3269 18.901ZM7.53549 14.1368V16.8978L9.60446 15.5173L7.53549 14.1368ZM15.5 13.566L12.5765 15.5173L15.5 17.4686L18.4235 15.5173L15.5 13.566ZM22.8037 12.5937L16.3269 8.28281V12.1336L19.9113 14.5243L22.8037 12.5937ZM11.0887 16.5103L8.19632 18.4408L14.6731 22.7518V18.901L11.0887 16.5103V16.5103Z" fill="white"/>
</svg>
