<svg width="100" height="100" viewBox="0 0 100 100" fill="none" xmlns="http://www.w3.org/2000/svg">
<path d="M52.6748 33.6833C51.1581 34.4708 49.3831 35.4333 47.4998 35.4333C45.6164 35.4333 44.1248 34.5625 43.0581 33.7125C42.5164 33.2917 42.0831 32.8708 41.7539 32.5625C41.1831 32.1125 41.2539 31.4833 41.4873 31.5042C41.8789 31.5542 41.9373 32.0708 42.1873 32.3C42.5206 32.6125 42.9373 33.0167 43.4456 33.4208C44.4581 34.2208 45.8081 35.0042 47.4998 35.0042C49.1914 35.0042 51.1581 34.0125 52.3623 33.3375C53.0414 32.9542 53.9081 32.2708 54.6164 31.75C55.1581 31.3542 55.1373 30.875 55.5831 30.925C56.0289 30.9792 55.6998 31.4542 55.0748 32C54.3351 32.6425 53.5308 33.2066 52.6748 33.6833Z" fill="#333333"/>
<path d="M81.8709 74.0418C81.2792 73.3752 81 72.1418 80.7 70.8293C80.4 69.5168 80.0625 68.1043 78.9875 67.1877L78.9792 67.1835C78.5896 66.8409 78.1424 66.5701 77.6584 66.3835C79.1542 61.946 78.5709 57.5252 77.0542 53.5335C75.2042 48.6293 71.9625 44.3585 69.4917 41.4377C66.725 37.946 64.0209 34.6335 64.0709 29.7377C64.1584 22.2668 64.8917 8.41267 51.7459 8.396C51.1882 8.39561 50.6307 8.41924 50.075 8.46683C35.3834 9.646 39.2834 25.1668 39.0625 30.3627C38.7959 34.1627 38.025 37.1585 35.4084 40.8752C32.3417 44.5252 28.0167 50.4377 25.9667 56.5877C25 59.4918 24.5417 62.4502 24.9625 65.2543C24.832 65.3737 24.7056 65.4974 24.5834 65.6252C23.6834 66.5877 23.0167 67.7543 22.2709 68.5377C21.5792 69.2335 20.5917 69.4918 19.5042 69.8835C18.4167 70.2752 17.225 70.846 16.5 72.2377L16.4959 72.246C16.1789 72.8698 16.0242 73.5633 16.0459 74.2627C16.0459 74.9043 16.1417 75.5585 16.2375 76.1835C16.4375 77.4877 16.6417 78.721 16.3709 79.5585C15.5125 81.9085 15.4042 83.5335 16.0084 84.7127C16.6167 85.896 17.8584 86.4168 19.2709 86.7085C22.0875 87.296 25.9042 87.1502 28.9125 88.746L29.1709 88.2585L28.9167 88.7502C32.1375 90.4335 35.4042 91.0293 38.0084 90.4377C39.9 90.0043 41.4292 88.8793 42.2209 87.1502C44.2584 87.1418 46.4917 86.2793 50.075 86.0835C52.5042 85.8877 55.5417 86.946 59.0292 86.7502C59.1198 87.1328 59.2584 87.5023 59.4417 87.8502C60.7917 90.5543 63.3084 91.7918 65.9875 91.5835C68.6667 91.3752 71.525 89.7918 73.8334 87.046L73.4084 86.6918L73.8334 87.0418C76.0292 84.3752 79.6792 83.271 82.1 81.8127C83.3084 81.0835 84.2875 80.1668 84.3667 78.8418C84.4417 77.5168 83.6625 76.0293 81.8709 74.0418ZM49.4125 25.2585C49.4 24.2835 49.5625 23.446 49.9375 22.596C50.3125 21.746 50.775 21.1335 51.4292 20.6377C52.0834 20.1418 52.7292 19.9127 53.4875 19.9043H53.525C54.2709 19.9043 54.9084 20.1252 55.5625 20.6002C56.225 21.0835 56.7042 21.6877 57.0875 22.5293C57.476 23.3587 57.6767 24.2635 57.675 25.1793C57.6834 26.1585 57.5167 26.9918 57.1459 27.8418C56.9564 28.2906 56.7038 28.7101 56.3959 29.0877L56.0875 28.9502C55.7167 28.7918 55.3917 28.6627 55.1 28.5502C54.8084 28.4377 54.5834 28.3668 54.3459 28.2835C54.5167 28.0793 54.8542 27.8335 54.975 27.5293C55.1655 27.0707 55.2673 26.5801 55.275 26.0835L55.2834 26.0168C55.2988 25.5401 55.2283 25.0644 55.075 24.6127C54.9167 24.1418 54.7167 23.8002 54.4292 23.5168C54.1417 23.2335 53.85 23.1043 53.5 23.096H53.4542C53.1188 23.099 52.7964 23.2267 52.55 23.4543C52.2253 23.7356 51.976 24.0937 51.825 24.496C51.6341 24.956 51.5323 25.448 51.525 25.946L51.5209 26.0085C51.5121 26.2875 51.5317 26.5667 51.5792 26.8418C50.903 26.5283 50.1947 26.2894 49.4667 26.1293C49.4323 25.8668 49.4128 25.6024 49.4084 25.3377V25.2585H49.4125ZM40.4792 25.4752C40.4292 24.6335 40.5167 23.9085 40.7459 23.1585C40.975 22.4085 41.2875 21.8627 41.7375 21.4168C42.113 21.0035 42.6345 20.7525 43.1917 20.7168H43.3167C43.8084 20.7168 44.2542 20.8835 44.7125 21.246C45.2372 21.678 45.6443 22.2355 45.8959 22.8668C46.2125 23.5793 46.3792 24.296 46.425 25.1377V25.146C46.4495 25.4832 46.4467 25.8218 46.4167 26.1585C46.3209 26.1835 46.225 26.2168 46.1334 26.246C45.6 26.4293 45.175 26.6335 44.7667 26.9043C44.8086 26.6088 44.8128 26.3092 44.7792 26.0127V25.9627C44.7421 25.5701 44.6466 25.1853 44.4959 24.821C44.374 24.4974 44.1769 24.2075 43.9209 23.9752C43.7042 23.7918 43.5042 23.7043 43.2834 23.7085L43.2125 23.7127C42.9584 23.7335 42.7542 23.8543 42.5584 24.096C42.3483 24.3691 42.2043 24.6871 42.1375 25.0252C42.0454 25.4252 42.0186 25.8375 42.0584 26.246L42.0625 26.296C42.1042 26.7252 42.1917 27.0835 42.3417 27.4418C42.4845 27.8093 42.7234 28.1316 43.0334 28.3752C42.7875 28.5627 42.625 28.7002 42.425 28.846L41.9667 29.1835C41.5528 28.7802 41.2278 28.2948 41.0125 27.7585C40.6959 27.0396 40.5151 26.2682 40.4792 25.4835V25.4752ZM41.125 30.5918C41.9042 30.0085 42.4375 29.6168 42.8 29.3502C43.1584 29.0877 43.3042 28.9918 43.4167 28.8835H43.4209C44.0042 28.3335 44.9292 27.3252 46.3334 26.8418C46.8125 26.6752 47.3542 26.571 47.9584 26.5668C49.1042 26.5627 50.4917 26.9377 52.1667 28.0168C53.1959 28.6835 53.9959 28.7418 55.8417 29.5293H55.8459C56.7334 29.8918 57.2542 30.371 57.5084 30.8668C57.7625 31.3668 57.7709 31.9085 57.5584 32.4793C57.1292 33.6168 55.7709 34.821 53.8625 35.4168H53.8584C52.925 35.7168 52.1167 36.3877 51.1625 36.9335C50.1132 37.5869 48.8886 37.9025 47.6542 37.8377C47.1186 37.814 46.5912 37.697 46.0959 37.4918C45.6918 37.3106 45.3135 37.0767 44.9709 36.796C44.3 36.2502 43.7084 35.5668 42.8459 35.0627H42.8375C41.45 34.271 40.6917 33.3627 40.45 32.571C40.2125 31.7835 40.4375 31.1085 41.125 30.5918ZM41.6709 84.8335V84.8377C41.475 87.4335 40.0125 88.8418 37.7625 89.3585C35.5167 89.871 32.4709 89.3585 29.4334 87.771H29.4292C26.0625 85.9918 22.0625 86.1668 19.4959 85.6293C18.2125 85.3627 17.375 84.9585 16.9875 84.2085C16.6042 83.4585 16.5959 82.1502 17.4125 79.9252L17.4167 79.9168L17.4209 79.9085C17.825 78.6627 17.525 77.3002 17.3334 76.0168C17.1375 74.7377 17.0417 73.5752 17.475 72.7627L17.4792 72.7543C18.0417 71.6752 18.8625 71.2877 19.8792 70.9252C20.9 70.5585 22.1042 70.271 23.0625 69.3168L23.0667 69.3127L23.0709 69.3085C23.9542 68.3793 24.6167 67.2127 25.3917 66.3835C26.0459 65.6877 26.7 65.221 27.6875 65.2168H27.725C27.8959 65.2168 28.0792 65.2293 28.275 65.2627C29.5834 65.4585 30.725 66.3793 31.8292 67.8668L35.0042 73.6543H35.0084C35.85 75.4168 37.6375 77.3627 39.15 79.3418C40.6584 81.321 41.8334 83.3085 41.6792 84.8293L41.6709 84.8335ZM41.4084 80.6252C40.974 79.9543 40.511 79.3023 40.0209 78.671C39.7084 78.2597 39.3904 77.8527 39.0667 77.4502C39.6959 77.4502 40.2334 77.3502 40.6667 77.1502C40.919 77.0446 41.1472 76.889 41.3377 76.6927C41.5282 76.4965 41.677 76.2638 41.775 76.0085C42.15 75.0002 41.775 73.5793 40.575 71.9543C39.3667 70.3293 37.3334 68.496 34.35 66.6668C32.1542 65.3002 30.9292 63.6293 30.3542 61.8127C29.7792 59.996 29.8584 58.0335 30.3 56.0918C31.15 52.3668 33.3375 48.7502 34.7292 46.4752C35.1042 46.2002 34.8625 46.9877 33.3167 49.8543C31.9334 52.4752 29.3459 58.5252 32.8875 63.246C33.0144 59.806 33.7743 56.4188 35.1292 53.2543C37.0959 48.8085 41.1959 41.0918 41.5209 34.9418C41.6917 35.0627 42.2709 35.4543 42.525 35.6002C43.2834 36.0418 43.8417 36.6918 44.575 37.2793C45.3125 37.871 46.225 38.3793 47.6125 38.4585L48 38.471C49.4292 38.471 50.5417 38.0043 51.4709 37.4752C52.4792 36.9002 53.2875 36.2585 54.0459 36.0127H54.05C55.6625 35.5043 56.9417 34.6168 57.6709 33.5752C58.9292 38.5168 61.8417 45.646 63.7125 49.1293C64.7084 50.9752 66.6917 54.9002 67.5459 59.6293C68.0875 59.6127 68.6834 59.6918 69.325 59.8543C71.5625 54.0502 67.4292 47.8043 65.5375 46.0627C64.7709 45.321 64.7375 44.9877 65.1125 45.0043C67.1625 46.821 69.8584 50.4668 70.8375 54.5877C71.2834 56.4668 71.3792 58.4418 70.9042 60.3918C71.1375 60.4877 71.375 60.5918 71.6167 60.7085C75.2084 62.4585 76.5375 63.9793 75.8959 66.0543C75.6875 66.046 75.4792 66.0502 75.2792 66.0543H75.2209C75.7417 64.4085 74.5917 63.1918 71.5167 61.8043C68.3334 60.4043 65.7959 60.5418 65.3667 63.3835C65.3367 63.5338 65.3131 63.6853 65.2959 63.8377C65.0584 63.921 64.8209 64.0252 64.5792 64.1543C63.0875 64.9752 62.2667 66.4585 61.8125 68.2793C61.3625 70.1002 61.2292 72.296 61.1042 74.771C61.025 76.0127 60.5167 77.696 59.9959 79.4752C54.7917 83.2127 47.5542 84.821 41.4084 80.6252ZM81.525 80.8627C79.3417 82.1835 75.4584 83.3335 72.9834 86.3335C70.8292 88.896 68.2084 90.3002 65.9 90.4835C63.5875 90.6668 61.5959 89.7085 60.4209 87.3502V87.346L60.4167 87.3335C59.6875 85.946 59.9917 83.7585 60.6042 81.4502C61.2167 79.1418 62.1 76.771 62.2209 74.846V74.8418C62.3459 72.3752 62.4834 70.2168 62.9 68.5543C63.3167 66.8918 63.9667 65.7668 65.1209 65.1335L65.2834 65.0502C65.4125 67.1877 66.4709 69.3668 68.3417 69.8377C70.3875 70.3752 73.3375 68.621 74.5834 67.1877C74.8334 67.1793 75.075 67.1627 75.3125 67.1585C76.4042 67.1335 77.3167 67.196 78.2584 68.0127V68.0168H78.2625C78.9834 68.6252 79.325 69.7793 79.6209 71.071C79.9167 72.3627 80.1542 73.7668 81.0459 74.771H81.05C82.7584 76.671 83.3084 77.9543 83.2625 78.771C83.2167 79.596 82.625 80.2043 81.525 80.8627Z" fill="#333333"/>
<path d="M48.9088 28.1752C48.9713 28.3752 49.2963 28.3418 49.4838 28.4377C49.6505 28.521 49.7796 28.7085 49.9671 28.7127C50.1421 28.7168 50.413 28.6502 50.438 28.4752C50.4713 28.2418 50.1338 28.096 49.913 28.0127C49.6338 27.9043 49.2755 27.8502 49.013 27.996C48.9546 28.0293 48.888 28.1085 48.9088 28.1752ZM46.9921 28.1752C46.9255 28.3752 46.6005 28.3418 46.413 28.4377C46.2505 28.521 46.1171 28.7085 45.9338 28.7127C45.7588 28.7168 45.4838 28.6502 45.4588 28.4752C45.4296 28.2418 45.7671 28.096 45.9838 28.0127C46.263 27.9043 46.6213 27.8502 46.888 27.996C46.9505 28.0293 47.013 28.1085 46.9921 28.1752Z" fill="#333333"/>
</svg>
