<svg width="100" height="100" viewBox="0 0 100 100" fill="none" xmlns="http://www.w3.org/2000/svg">
<path d="M90.083 46.2832L53.7038 9.91233C52.695 8.90805 51.3294 8.34424 49.9059 8.34424C48.4824 8.34424 47.1169 8.90805 46.108 9.91233L38.5705 17.4582L48.1497 27.0415C49.2799 26.6596 50.4945 26.6021 51.6557 26.8754C52.8169 27.1488 53.8783 27.7421 54.7195 28.588C55.5607 29.434 56.148 30.4987 56.4147 31.6615C56.6815 32.8242 56.6171 34.0385 56.2288 35.1665L65.4538 44.404C66.8196 43.9248 68.3078 43.9246 69.6738 44.4034C71.0397 44.8823 72.202 45.8118 72.9695 47.039C73.737 48.2661 74.0641 49.718 73.8969 51.1557C73.7297 52.5934 73.0783 53.9315 72.0497 54.9498C69.5538 57.4498 65.5247 57.4498 63.0247 54.9498C62.1367 54.0608 61.53 52.9301 61.2803 51.6987C61.0306 50.4672 61.1489 49.1895 61.6205 48.0248L52.9788 39.429V62.0832C53.5872 62.379 54.1705 62.7873 54.6747 63.2915C55.866 64.4912 56.5345 66.1133 56.5345 67.804C56.5345 69.4947 55.866 71.1168 54.6747 72.3165C54.0802 72.9119 53.3743 73.3842 52.5971 73.7065C51.8199 74.0288 50.9868 74.1947 50.1455 74.1947C49.3042 74.1947 48.4711 74.0288 47.6939 73.7065C46.9168 73.3842 46.2108 72.9119 45.6163 72.3165C45.0232 71.7251 44.5526 71.0224 44.2315 70.2488C43.9104 69.4751 43.7452 68.6458 43.7452 67.8082C43.7452 66.9705 43.9104 66.1412 44.2315 65.3675C44.5526 64.5939 45.0232 63.8913 45.6163 63.2998C46.2497 62.6748 46.958 62.1998 47.7163 61.8873V39.0123C46.9373 38.6934 46.2292 38.2232 45.6329 37.6289C45.0366 37.0347 44.5641 36.3281 44.2425 35.5501C43.9209 34.7722 43.7567 33.9382 43.7594 33.0963C43.762 32.2545 43.9315 31.4216 44.258 30.6457L34.8413 21.1832L9.89551 46.1082C7.81217 48.2082 7.81217 51.6082 9.89551 53.7082L46.2747 90.079C46.7724 90.578 47.3637 90.9739 48.0147 91.2441C48.6657 91.5142 49.3636 91.6533 50.0684 91.6533C50.7732 91.6533 51.4711 91.5142 52.1221 91.2441C52.7731 90.9739 53.3644 90.578 53.8622 90.079L90.0705 53.8748C90.572 53.3784 90.9703 52.7877 91.2425 52.1367C91.5147 51.4856 91.6554 50.7872 91.6566 50.0816C91.6578 49.376 91.5193 48.6771 91.2493 48.0252C90.9792 47.3733 90.5828 46.7812 90.083 46.2832Z" fill="#333333"/>
</svg>
