<svg width="63" height="97" viewBox="0 0 63 97" fill="none" xmlns="http://www.w3.org/2000/svg">
<path d="M16.0002 69.0258V47.0102C16.0002 35.2246 5.55573 31.9471 0.333496 31.7816V49.6587C0.333496 60.5175 10.778 67.0947 16.0002 69.0258Z" fill="white"/>
<path d="M47.1665 27.9744C52.3888 29.7953 62.8334 36.6151 62.8334 49.3276C62.8334 62.0402 52.3888 65.2183 47.1665 65.2183V27.9744Z" fill="#292929"/>
<path d="M31.6667 27.9744C26.4444 30.2367 16 37.2109 16 47.0103V69.0259V96.669C21.2222 95.2894 31.6667 90.5444 31.6667 82.5993V27.9744Z" fill="#292929"/>
<path d="M31.6664 13.4078C31.7997 4.40307 42.0554 0.937996 47.1664 0.331055V49.8242C47.1664 59.6238 36.8331 66.7084 31.6664 69.0259C31.6109 54.2383 31.533 22.4126 31.6664 13.4078Z" fill="white"/>
</svg>
