<svg width="30" height="29" viewBox="0 0 30 29" fill="none" xmlns="http://www.w3.org/2000/svg">
<path d="M10.8358 3.97417C10.5499 4.99994 10.406 6.06011 10.4083 7.125C10.4083 13.585 15.665 18.8417 22.125 18.8417C23.2017 18.8417 24.2625 18.6992 25.2758 18.4142C24.4441 20.4578 23.0225 22.2074 21.1923 23.4397C19.3622 24.672 17.2064 25.3313 15 25.3333C8.88834 25.3333 3.91667 20.3617 3.91667 14.25C3.91667 9.61083 6.78251 5.62083 10.8358 3.97417V3.97417ZM15 0C12.1816 0 9.42653 0.835748 7.08313 2.40156C4.73973 3.96737 2.91327 6.19291 1.83472 8.79676C0.756174 11.4006 0.473977 14.2658 1.02382 17.03C1.57366 19.7943 2.93084 22.3334 4.92373 24.3263C6.91663 26.3192 9.45574 27.6764 12.22 28.2262C14.9842 28.776 17.8494 28.4938 20.4532 27.4153C23.0571 26.3367 25.2826 24.5103 26.8484 22.1669C28.4143 19.8235 29.25 17.0684 29.25 14.25C29.25 13.5217 29.1867 12.7933 29.0917 12.0967C28.3005 13.206 27.2552 14.1098 26.0432 14.7324C24.8311 15.3549 23.4876 15.6781 22.125 15.675C20.3124 15.675 18.5467 15.0994 17.0824 14.031C15.6182 12.9626 14.5311 11.4567 13.978 9.73055C13.4249 8.00439 13.4344 6.14718 14.0051 4.42677C14.5758 2.70637 15.6782 1.21169 17.1533 0.158333C16.4567 0.0633332 15.7283 0 15 0V0Z" fill="white"/>
</svg>
